<?xml version="1.0" encoding="utf-8"?>
<!-- Generator: Adobe Illustrator 16.0.0, SVG Export Plug-In . SVG Version: 6.00 Build 0)  -->
<!DOCTYPE svg PUBLIC "-//W3C//DTD SVG 1.1//EN" "http://www.w3.org/Graphics/SVG/1.1/DTD/svg11.dtd">
<svg version="1.1" id="Слой_1" xmlns="http://www.w3.org/2000/svg" xmlns:xlink="http://www.w3.org/1999/xlink" x="0px" y="0px"
	 width="299.223px" height="145.404px" viewBox="0 0 299.223 145.404" enable-background="new 0 0 299.223 145.404"
	 xml:space="preserve">
<g>
	<g>
		<g>
			<g>
				<defs>
					
						<ellipse id="XMLID_302_" transform="matrix(0.9603 0.2789 -0.2789 0.9603 34.8233 2.5142)" cx="8.575" cy="123.649" rx="7.319" ry="5.194"/>
				</defs>
				<use xlink:href="#XMLID_302_"  overflow="visible" fill="#3AAA35"/>
				<clipPath id="XMLID_2_">
					<use xlink:href="#XMLID_302_"  overflow="visible"/>
				</clipPath>
				
					<ellipse transform="matrix(0.9603 0.2789 -0.2789 0.9603 34.9861 1.3698)" clip-path="url(#XMLID_2_)" fill="#129839" cx="12.679" cy="123.649" rx="7.319" ry="5.194"/>
				
					<use xlink:href="#XMLID_302_"  overflow="visible" fill="none" stroke="#055629" stroke-width="2.7952" stroke-miterlimit="10"/>
			</g>
			<g>
				<defs>
					
						<ellipse id="XMLID_301_" transform="matrix(0.9603 0.2788 -0.2788 0.9603 34.6466 -0.9298)" cx="20.592" cy="121.34" rx="11.745" ry="8.336"/>
				</defs>
				<use xlink:href="#XMLID_301_"  overflow="visible" fill="#3AAA35"/>
				<clipPath id="XMLID_3_">
					<use xlink:href="#XMLID_301_"  overflow="visible"/>
				</clipPath>
				
					<ellipse transform="matrix(0.9603 0.2788 -0.2788 0.9603 35.0243 -2.8397)" clip-path="url(#XMLID_3_)" fill="#129839" cx="27.496" cy="121.713" rx="11.745" ry="8.337"/>
				
					<use xlink:href="#XMLID_301_"  overflow="visible" fill="none" stroke="#055629" stroke-width="2.7952" stroke-miterlimit="10"/>
			</g>
			<path fill="#3AAA35" stroke="#055629" stroke-width="2.7952" stroke-miterlimit="10" d="M129.135,128.023
				c0,0-9.665-5.219-18.415-11.854c7.178,0.566,13.252-1.27,16.81-5.732c7.952-9.98,0.331-29.281-17.023-43.111
				C93.15,53.493,72.635,50.372,64.681,60.351c-7.952,9.98-0.329,29.281,17.024,43.111c3.104,2.473,6.306,4.596,9.521,6.37h-0.84
				c0,0-4.083-0.312-10.405,3.105c0,0-15.824,5.938-30.752,7.055c0.037-4.837-4.545-9.817-11.215-11.755
				c-7.601-2.207-15.031,0.377-16.598,5.771c-1.567,5.396,3.325,11.559,10.926,13.766c5.067,1.471,10.052,0.803,13.28-1.398
				c4.847,0.887,28.797,6.801,48.556-2.422c0,0,20.291,10.018,37.074,5.969C148.036,125.874,129.135,128.023,129.135,128.023z"/>
		</g>
		<g>
			<g>
				<defs>
					<path id="XMLID_300_" d="M129.135,128.023c0,0-4.119-5.458-12.868-12.093c7.177,0.565,7.705-1.031,11.263-5.494
						c7.952-9.98,0.331-29.281-17.023-43.111C93.15,53.493,72.635,50.372,64.681,60.351c-7.952,9.98-0.329,29.281,17.024,43.111
						c3.104,2.473,6.306,4.596,9.521,6.37h-0.84c0,0-4.083-0.312-10.405,3.105c0,0-15.824,5.938-30.752,7.055
						c0.037-4.837-4.545-9.817-11.215-11.755c-7.601-2.207-15.031,0.377-16.598,5.771c-1.567,5.396,3.325,11.559,10.926,13.766
						c5.067,1.471,10.052,0.803,13.28-1.398c4.847,0.887,32.34,8.293,52.099-0.93c0,0,16.748,8.525,33.531,4.477
						C148.036,125.874,129.135,128.023,129.135,128.023z"/>
				</defs>
				<clipPath id="XMLID_4_">
					<use xlink:href="#XMLID_300_"  overflow="visible"/>
				</clipPath>
				<path clip-path="url(#XMLID_4_)" fill="#129839" d="M82.445,54.229c4.092,1.462,7.62,3.179,8.391,7.92
					c1.246,7.663-3.752,11.681-5.92,18.448c-1.162,3.627-0.779,7.475,0.309,11.06c1.191,3.925,2.651,8.151,5.045,11.511
					c2.238,3.146,5.342,5.514,7.567,8.703c-14.063,8.43-31.946,10.861-47.558,5.637c-4.312-1.441-12.815-7.078-17.389-4.021
					c-4.422,2.956-1.51,9.35,1.973,11.605c6.633,4.295,16.527,2.359,23.918,2.122c12.15-0.39,24.133,1.199,36.219,2.149
					c6.539,0.514,13.15,0.875,19.703,0.395c3.167-0.232,9.289-0.313,11.578-3.074c3.775-4.557-9.541-12.857-12.063-15.571
					c-7.814-8.404-8.43-18.079-7.922-29.015c0.487-10.475,4.078-17.521-5.952-22.429c-2.085-1.019-9.415-3.005-11.697-3.536
					c-2.283-0.531-4.65-0.205-6.666-1.67"/>
				
					<use xlink:href="#XMLID_300_"  overflow="visible" fill="none" stroke="#055629" stroke-width="2.7952" stroke-miterlimit="10"/>
			</g>
		</g>
	</g>
	<g>
		<path fill="#129839" stroke="#055629" stroke-width="2.7952" stroke-miterlimit="10" d="M173.019,128.167
			c0,0,9.153-4.943,17.438-11.226c-6.797,0.534-12.549-1.204-15.919-5.431c-7.53-9.45-0.313-27.729,16.123-40.826
			c16.433-13.1,35.862-16.056,43.395-6.605c7.53,9.452,0.313,27.73-16.123,40.827c-2.938,2.341-5.971,4.353-9.015,6.033h0.797
			c0,0,3.867-0.295,9.852,2.94c0,0,14.986,5.625,29.122,6.681c-0.032-4.58,4.306-9.297,10.622-11.132
			c7.197-2.09,14.234,0.355,15.718,5.467c1.483,5.109-3.148,10.944-10.347,13.035c-4.799,1.393-9.52,0.761-12.577-1.324
			c-4.589,0.84-25.502,3.967-44.217-4.767c0,0-20.98,11.96-36.875,8.126C155.119,126.13,173.019,128.167,173.019,128.167z"/>
	</g>
	<g>
		<g>
			<path fill="#3AAA35" d="M212.965,135.367c-5.132,0-9.151-2.717-9.151-6.187c0-3.47,4.02-6.188,9.151-6.188
				c3.577,0,6.696,1.332,8.198,3.407c3.365-0.777,14.696-3.764,20.418-9.833c-0.004-0.123-0.031-0.873-0.038-1.138
				c-0.113-2.823-1.013-6.276-2.404-9.213c-1.76-3.883-4.442-7.166-5.886-8.779c-1.134-1.269-2.073-2.158-2.532-2.575
				c-0.604-0.563-0.993-0.869-1.017-0.888l-7.181-5.604l8.532,3.193c0,0,0.544,0.204,1.437,0.615
				c0.757,0.343,1.988,0.941,3.51,1.822c2.602,1.51,6.392,4.051,9.675,7.585l1.141,1.243c0.275,0.295,0.528,0.623,0.78,0.951
				c0.108,0.141,1.404,1.811,1.404,1.811l1.196,1.854c0.213,0.331,0.424,0.659,0.616,0.992l0.9,1.746l0.515,1.019
				c0.171,0.355,0.298,0.688,0.421,1.013l0.392,1.018c0.24,0.625,0.465,1.211,0.645,1.754l0.056,0.208
				c1.425,0.175,3.887,0.812,7.032,2.942c0.129,0.089,10.808,7.491,20.808,9.04c0.96-2.668,4.15-4.593,7.971-4.593
				c4.64,0,8.273,2.757,8.273,6.276c0,3.521-3.634,6.278-8.273,6.278c-2.753,0-5.289-1.021-6.815-2.704
				c-8.232-0.091-25.925-0.7-31.71-4.149c-2.744,0.824-13.517,3.857-23.43,3.858c-2.27,0-4.358-0.164-6.224-0.486
				C219.969,133.891,216.727,135.367,212.965,135.367z"/>
			<path fill="#055629" d="M230.563,92.872c0,0,0.509,0.191,1.343,0.576c0.841,0.381,2.02,0.966,3.396,1.763
				c2.744,1.593,6.313,4.057,9.352,7.327l1.134,1.236c0.383,0.41,0.701,0.871,1.052,1.305c0.344,0.443,0.685,0.885,1.021,1.32
				c0.302,0.467,0.599,0.927,0.892,1.379c0.289,0.458,0.59,0.904,0.854,1.359c0.242,0.469,0.479,0.928,0.71,1.375
				c0.229,0.453,0.451,0.896,0.667,1.321c0.208,0.433,0.354,0.874,0.521,1.288c0.317,0.836,0.626,1.606,0.857,2.305
				c0.107,0.402,0.202,0.767,0.291,1.108c0.032-0.002,0.088-0.004,0.164-0.004c0.725,0,3.382,0.194,7.176,2.763
				c0,0,11.862,8.305,22.696,9.436c0.098-2.634,3.13-4.748,6.865-4.748c3.797,0,6.876,2.184,6.876,4.879s-3.079,4.881-6.876,4.881
				c-2.689,0-5.013-1.1-6.144-2.697c-6.041-0.051-27.2-0.504-32.159-4.289c0,0-12.514,3.991-23.653,3.991
				c-2.458,0-4.846-0.194-7.021-0.668c-0.681,2.216-3.827,3.892-7.61,3.892c-4.282,0-7.754-2.144-7.754-4.789
				c0-2.646,3.472-4.79,7.754-4.79c3.61,0,6.637,1.527,7.497,3.593c0.004,0,15.596-3.035,22.527-10.886
				c0-0.506-0.034-1.069-0.049-1.7c-0.105-2.623-0.872-6.262-2.539-9.779c-1.604-3.541-4.055-6.818-6.107-9.112
				c-1.027-1.149-1.956-2.062-2.633-2.677C230.995,93.208,230.563,92.872,230.563,92.872 M214.262,83.753l14.582,11.323
				c0.021,0.017,0.375,0.298,0.911,0.797c0.465,0.423,1.364,1.274,2.455,2.495c1.391,1.555,3.973,4.711,5.646,8.403
				c1.335,2.819,2.185,6.069,2.292,8.738c0.004,0.158,0.009,0.333,0.016,0.51c-5.156,5.1-14.606,7.858-18.492,8.821
				c-1.907-2.002-5.116-3.246-8.706-3.246c-5.916,0-10.549,3.332-10.549,7.585c0,4.253,4.634,7.584,10.549,7.584
				c3.805,0,7.166-1.401,9.02-3.596c1.72,0.247,3.6,0.372,5.612,0.372c9.514,0,19.78-2.733,23.274-3.752
				c6.241,3.18,21.537,3.91,31.277,4.037c1.808,1.699,4.513,2.711,7.404,2.711c5.423,0,9.671-3.372,9.671-7.676
				c0-4.303-4.248-7.674-9.671-7.674c-3.904,0-7.247,1.799-8.775,4.433c-9.358-1.812-19.079-8.542-19.185-8.615
				c-2.813-1.905-5.156-2.712-6.784-3.045c-0.144-0.398-0.3-0.805-0.462-1.227l-0.23-0.602l-0.011-0.027l-0.01-0.026
				c-0.048-0.117-0.092-0.236-0.138-0.356c-0.124-0.327-0.264-0.697-0.456-1.098l-0.013-0.027l-0.014-0.026l-0.508-1.006
				l-0.156-0.311l-0.423-0.819l-0.3-0.581l-0.031-0.06l-0.033-0.059c-0.204-0.351-0.427-0.698-0.651-1.048l-0.258-0.402
				l-0.644-0.996l-0.264-0.409l-0.064-0.099l-0.072-0.094l-0.309-0.398l-0.715-0.924l-0.018-0.022l-0.018-0.022
				c-0.104-0.129-0.205-0.261-0.306-0.392c-0.249-0.325-0.531-0.693-0.877-1.063l-1.117-1.218
				c-3.413-3.674-7.325-6.298-10.008-7.855c-1.574-0.912-2.851-1.531-3.646-1.892c-0.882-0.407-1.45-0.623-1.512-0.646
				L214.262,83.753L214.262,83.753z"/>
		</g>
		<g>
			<path fill="#3AAA35" d="M250.536,121.101c0.205,0.203,0.455,0.448,0.738,0.73c0.271,0.285,0.61,0.586,1.001,0.893
				c1.437,1.297,3.671,2.705,5.856,3.441c0.928,0.313,1.829,0.486,2.664,0.568c1.659-0.781,3.973-0.994,6.388-0.445
				c4.247,0.969,7.195,3.934,6.582,6.623s-4.555,4.086-8.803,3.117c-0.822-0.188-1.594-0.451-2.302-0.771
				c-0.213,0.11-0.451,0.13-0.719,0.025c-2.573-0.959-5.556-2.881-7.558-5.193c-2.013-2.322-3.191-4.791-3.729-6.625
				c-0.169-0.451-0.291-0.865-0.366-1.242c-0.085-0.368-0.158-0.689-0.22-0.955c-0.118-0.52-0.186-0.818-0.186-0.818
				S250.123,120.686,250.536,121.101z"/>
			<g>
				<g>
					<path fill="#115529" d="M262.626,136.401c0,0,0.302,0.117,0.83,0.322c0.545,0.151,1.314,0.405,2.274,0.544
						c0.956,0.148,2.1,0.214,3.328,0.059c1.222-0.161,2.553-0.511,3.744-1.335c0.589-0.414,1.137-0.949,1.532-1.613
						c0.395-0.667,0.586-1.446,0.588-2.183c0.007-1.515-0.729-2.661-1.358-3.461c-0.664-0.806-1.342-1.302-1.813-1.639
						c-0.476-0.333-0.766-0.485-0.766-0.485s-0.331-0.191-0.938-0.442c-0.606-0.248-1.486-0.574-2.576-0.774
						c-0.549-0.08-1.147-0.135-1.773-0.206c-0.629-0.044-1.305,0.027-1.988,0.043c-0.344,0.048-0.691,0.13-1.042,0.196
						c-0.35,0.075-0.706,0.12-1.048,0.281l-0.518,0.205l-0.258,0.104c-0.087,0.035-0.056,0.028-0.091,0.045
						c-0.06,0.022-0.509-0.044-0.803-0.069c-2.592-0.335-5.045-1.674-6.694-2.824c-0.83-0.593-1.476-1.134-1.936-1.518
						c-0.446-0.404-0.701-0.636-0.701-0.636s0.232,0.256,0.639,0.705c0.42,0.428,1.024,1.045,1.808,1.73
						c1.575,1.33,3.929,2.979,6.761,3.62l0.528,0.109l0.316,0.062c0.061,0.009,0.12,0.029,0.183,0.029l0.198-0.061
						c0.337-0.098,0.672-0.196,1.005-0.292c0.289-0.115,0.624-0.09,0.927-0.137c0.311-0.02,0.609-0.084,0.913-0.069
						c0.607,0.061,1.191,0.026,1.735,0.15c0.543,0.126,1.059,0.206,1.521,0.34c0.924,0.278,1.642,0.626,2.117,0.896
						c0.242,0.13,0.425,0.241,0.544,0.326c0.121,0.08,0.187,0.122,0.187,0.122s0.229,0.133,0.609,0.395
						c0.362,0.273,0.888,0.677,1.345,1.26c0.454,0.574,0.837,1.333,0.802,2.079c-0.033,0.74-0.466,1.479-1.281,1.991
						c-0.781,0.535-1.826,0.801-2.8,0.922c-0.988,0.108-1.94,0.042-2.742-0.083c-0.804-0.134-1.448-0.348-1.901-0.482
						c-0.439-0.173-0.69-0.272-0.69-0.272l-0.236-0.079l-1.178-0.393l0.304,0.545c0.089,0.16,0.027,0.162,0.065-0.003
						c0.005-0.058,0.034-0.154,0.026-0.122c0.014,0.007-0.03-0.005,0.029,0.019l-0.064-0.025l-0.257-0.102l-1.025-0.407
						c-0.724-0.247-1.266-0.606-1.885-0.923c-0.62-0.292-1.19-0.712-1.771-1.117c-0.288-0.205-0.59-0.396-0.869-0.612l-0.78-0.708
						c-2.086-1.896-3.756-4.349-4.759-7.046l0.074-0.052c-0.367-0.905-0.683-1.92-0.902-2.932c-0.114,0.055-0.229,0.11-0.36,0.184
						l0.697,0.605c-0.205-0.229-0.41-0.458-0.628-0.676c0.044-0.025,0.087-0.051,0.136-0.078c0.165,1.029,0.339,2.044,0.659,3.046
						c-0.019,0.004-0.038,0.009-0.038,0.008c0.751,2.865,2.204,5.57,4.232,7.828l0.771,0.849c0.276,0.261,0.573,0.497,0.86,0.747
						c0.578,0.496,1.146,1.006,1.819,1.416c0.648,0.421,1.312,0.915,1.964,1.21l0.981,0.507l0.245,0.127l0.062,0.032
						c0.098,0.044,0.101,0.039,0.156,0.061l0.264,0.08c0.387,0.084,0.851,0.031,1.063-0.437c-0.257,0.104-0.514,0.209-0.727,0.215
						L262.626,136.401z"/>
				</g>
			</g>
		</g>
	</g>
	<g>
		<defs>
			<path id="XMLID_299_" d="M259.763,42.413c-0.716-3.819-5.52-6.982-8.548-8.829c-7.714-4.704-11.259-13.101-18.424-18.772
				c-3.802-3.01-7.699-6.243-12.119-8.402c-19.734-9.641-44.851-3.748-64.478,4.057c-42.722,16.989-67.149,56.418-54.564,88.068
				c10.978,27.603,46.483,40.166,83.724,31.66c2.852,0.549,5.817,0.848,8.869,0.848c21.733,0,39.352-14.714,39.352-32.865
				c0-8.549-3.909-16.334-10.315-22.181c4.505-5.646,10.615-10.69,17.994-14.444c1.62-0.822,9.23-0.941,12.47-3.963
				c0.482-0.449,0.868-0.963,1.121-1.553c0.335-0.771,0.443-1.676,0.251-2.737c-0.155-0.851-0.503-1.801-1.083-2.867
				C257.353,50.562,260.288,45.224,259.763,42.413z"/>
		</defs>
		<use xlink:href="#XMLID_299_"  overflow="visible" fill="#3AAA35"/>
		<clipPath id="XMLID_5_">
			<use xlink:href="#XMLID_299_"  overflow="visible"/>
		</clipPath>
		<path clip-path="url(#XMLID_5_)" fill="#129839" d="M106.199,46.076c-3.084,7.651-4.291,16.725-4.668,24.89
			c-0.496,10.742,2.432,22.908,11.256,29.782c8.013,6.243,19.371,6.331,29.118,4.085c9.351-2.154,11.8-13.197,13.538-17.158
			c3.092-7.049,5.117-1.953,10.279-8.756c3.827-5.042,5.66-5.724,11.061-9.084c2.716-1.689,6.396-14.865,6.41-18.391
			c0,0.02-0.352,77.357,14.088,80.602l-64.755,16.541L85.191,98.176C85.191,98.176,106.182,46.122,106.199,46.076z"/>
		<path clip-path="url(#XMLID_5_)" fill="#E6E7E9" d="M162.123,115.807c-0.142-0.196-0.278-0.391-0.413-0.583
			c-6.84-9.9-9.271-21.977-4.538-33.398c4.262-10.291,11.457-19.093,20.117-26.007c1.896-1.513,3.852-3.071,5.904-4.374
			c6.935,3.975,21.95,1.428,21.95,1.428c43.479-8.574,53.614,7.643,53.614,7.643l-7.796,69.332c0,0-65.473,0.346-65.608,0.348
			C176.658,130.24,166.993,122.507,162.123,115.807z"/>
		<use xlink:href="#XMLID_299_"  overflow="visible" fill="none" stroke="#055629" stroke-width="2.7952" stroke-miterlimit="10"/>
	</g>
	<path fill="#9ACDA3" d="M192.73,65.309c-21.733,0-39.352,14.716-39.352,32.868c0,18.151,17.618,32.865,39.352,32.865
		s39.352-14.714,39.352-32.865C232.082,80.024,214.464,65.309,192.73,65.309z M200.301,124.89c-17.095,0-30.955-12.454-30.955-27.82
		c0-15.365,13.86-27.821,30.955-27.821c17.099,0,30.958,12.456,30.958,27.821C231.259,112.436,217.399,124.89,200.301,124.89z"/>
	<path opacity="0.3" fill="#3AAA35" d="M246.896,30.236c2.251,1.085,7.041,3.952,5.998,6.993c-1.183,3.445-7.068,3.058-9.68,2.876
		c-5.119-0.356-10.298-0.526-15.343-1.525c-10.452-2.069-20.61-6.187-29.622-11.853c-3.663-2.303-7.143-4.951-10.08-8.153
		c-4.803-5.234-9.923-11.665-17.594-12.108c6.659,4.863,4.874,16.127,2.706,23.305c-1.243,4.12-3.438,8.355-6.613,11.402
		c-3.43,3.29-8.757,3.904-13.122,3.738c-3.994-0.152-7.562-0.617-11.242-1.869c-3.311-1.128-5.222-3.121-6.956-6.01
		c0.078-0.102,0.337-0.107,0.423-0.21c-1.517-0.726-2.263-2.341-3.488-3.301c0.344,0.269,0.266,3.882,0.385,4.499
		c0.322,1.646,0.857,3.258,1.542,4.788c4.702,10.512,17.273,16.728,28.37,13.044c5.642-1.873,14.689-5.906,20.613-4.408
		c9.537,2.411,16.207,2.764,26.752,0.775c9.896-1.865,20.178-3.389,30.089-1.496c5.568,1.063,11.027,2.826,16.092,5.385
		c-1.177-1.196-2.278-4.773-3.149-6.489c0.264,0.519,3.803-0.71,4.213-0.974c3.267-2.1,3.284-6.939,1.522-9.972
		c-2.902-4.991-8.465-6.413-12.747-9.369"/>
	<path fill="#E62D23" stroke="#A52616" stroke-width="1.8635" stroke-miterlimit="10" d="M251.968,32.575
		c2.189-6.957-0.06-15.361-6.359-21.225c-6.969-6.485-16.702-7.824-23.771-3.871"/>
	<g>
		<g>
			<g>
				<path fill="#085729" d="M255.964,50.024l-1.578,2.438c0,0-0.336-0.195-0.923-0.538c-0.289-0.178-0.648-0.382-1.09-0.579
					c-0.438-0.199-0.907-0.465-1.473-0.67c-2.2-0.926-5.323-1.832-8.555-2.446c-1.615-0.325-3.22-0.508-4.733-0.736
					c-1.528-0.105-2.947-0.272-4.177-0.298c-1.229-0.028-2.254-0.051-2.972-0.067c-0.72,0.015-1.131,0.023-1.131,0.023
					s-0.868-0.002-2.388-0.008c-1.523,0.043-3.701,0.082-6.324,0.27c-2.622,0.156-5.69,0.437-8.983,0.731
					c-3.31,0.304-6.874,0.528-10.439,0.434c-3.557-0.101-7.158-0.476-10.347-1.608c-1.574-0.587-3.066-1.355-4.174-2.46
					c-1.133-1.076-1.822-2.452-2.011-3.789c-0.097-1.359,0.377-2.55,0.926-3.458c0.565-0.914,1.254-1.572,1.901-1.962
					c1.333-0.787,2.257-0.511,2.234-0.558c0.024,0.042-0.908-0.17-2.155,0.654c-0.606,0.408-1.237,1.076-1.733,1.974
					c-0.247,0.448-0.463,0.954-0.595,1.507c-0.141,0.548-0.217,1.149-0.132,1.742c0.21,1.159,0.898,2.433,1.966,3.348
					c1.049,0.96,2.459,1.618,3.964,2.104c3.053,0.928,6.541,1.133,9.989,1.063c3.461-0.081,6.914-0.462,10.147-0.925
					c3.254-0.461,6.302-0.896,8.935-1.198c2.628-0.328,4.844-0.482,6.391-0.622c1.557-0.075,2.447-0.118,2.447-0.118
					s0.43-0.011,1.183-0.03c0.754-0.003,1.835,0.034,3.131,0.059c1.295-0.003,2.81,0.192,4.43,0.298
					c0.811,0.07,1.643,0.227,2.49,0.341c0.846,0.13,1.716,0.235,2.555,0.416c3.386,0.63,6.766,1.595,9.227,2.622
					c0.622,0.229,1.17,0.524,1.664,0.753c0.496,0.224,0.917,0.457,1.257,0.665C255.572,49.795,255.964,50.024,255.964,50.024z"/>
			</g>
		</g>
	</g>
	<g>
		<g>
			<g>
				<path fill="#115529" d="M186.301,33.942c0,0,0.196,0.191,0.49,0.477c0.314,0.261,0.725,0.624,1.162,0.949
					c0.872,0.657,1.824,1.187,1.824,1.187c0,0,0.287,0.133,0.747,0.261c0.448,0.137,1.046,0.32,1.645,0.502
					c0.603,0.148,1.229,0.205,1.679,0.284c0.451,0.067,0.752,0.113,0.752,0.113s-0.28-0.133-0.699-0.333
					c-0.412-0.21-0.973-0.434-1.487-0.746c-0.496-0.334-0.991-0.669-1.363-0.92c-0.371-0.234-0.589-0.437-0.589-0.437
					c0,0-0.872-0.487-1.668-1.087c-0.395-0.301-0.771-0.626-1.055-0.867c-0.266-0.259-0.443-0.432-0.443-0.432
					s-0.95-0.67-1.74-1.545c-0.815-0.85-1.44-1.891-1.44-1.891c0,0,0.086,0.293,0.216,0.733c0.134,0.441,0.364,1.022,0.643,1.585
					C185.509,32.92,186.301,33.942,186.301,33.942z"/>
			</g>
		</g>
	</g>
	<path fill="#0F9439" stroke="#055629" stroke-width="1.8635" stroke-miterlimit="10" d="M232.791,14.812
		c7.165,5.672,10.71,14.068,18.424,18.772c0.312,0.19,0.646,0.397,0.988,0.615c-1.112-5.858-4.179-11.788-9.092-16.703
		c-5.711-5.713-12.795-8.93-19.547-9.483C226.83,10.011,229.842,12.477,232.791,14.812z"/>
	<g>
		<g>
			<g>
				<path fill="#3AAA35" d="M155.277,144.006c-4.24-0.02-7.872-1.714-9.368-4.247c-1.438,0.236-2.958,0.355-4.531,0.355
					c-10.89,0-21.88-5.571-24.845-7.191c-6.596,3.786-26.451,4.366-35.637,4.425c-1.676,1.871-4.492,3.008-7.549,3.008
					c-2.419-0.011-4.648-0.685-6.34-1.897c-1.837-1.317-2.843-3.107-2.833-5.042c0.017-3.842,4.022-6.853,9.118-6.853
					c4.344,0.021,7.914,2.224,8.894,5.238c11.372-1.648,23.563-10.024,23.689-10.111c3.635-2.436,6.438-3.107,7.994-3.273
					l0.068-0.256c0.223-0.671,0.469-1.302,0.73-1.973c0,0,0.424-1.087,0.482-1.239c0.136-0.354,0.276-0.716,0.449-1.074l0.871-1.697
					l0.715-1.373c0.245-0.419,0.47-0.766,0.698-1.115l1.385-2.125l1.192-1.531c0.15-0.185,0.276-0.347,0.402-0.509
					c0.279-0.36,0.56-0.719,0.872-1.052l1.281-1.38c3.706-3.951,7.974-6.785,10.902-8.467c0.597-0.342,1.174-0.514,1.715-0.514
					c0.851,0,1.58,0.45,1.902,1.175c0.394,0.887,0.112,1.99-0.755,2.951c-1.644,1.82-4.698,5.523-6.697,9.879
					c-1.603,3.344-2.641,7.255-2.786,10.486c-0.007,0.282-0.046,1.18-0.051,1.335c6.248,6.933,15.841,12.325,19.103,14.047
					c1.699-2.18,5.07-3.569,8.92-3.569c5.755,0.029,10.191,3.035,10.172,6.843c-0.017,3.783-4.45,6.747-10.09,6.747
					C155.35,144.006,155.277,144.006,155.277,144.006z"/>
				<path fill="#055629" d="M135.632,95.509c0.791,0,0.975,0.834,0.11,1.792c-2.324,2.574-5.104,6.253-6.93,10.232
					c-1.896,3.955-2.779,8.053-2.912,11.006c-0.02,0.711-0.062,1.345-0.065,1.915c7.769,8.882,21.029,15.367,21.033,15.368
					c0.975-2.31,4.359-4.009,8.4-4.009c0.022,0,0.044,0,0.066,0c4.826,0.024,8.724,2.458,8.709,5.438
					c-0.014,2.967-3.897,5.355-8.692,5.355c-0.022,0-0.045,0-0.067,0c-4.263-0.02-7.8-1.924-8.554-4.426
					c-1.747,0.372-3.544,0.534-5.352,0.534c-12.236,0-24.898-7.426-24.898-7.426c-5.606,4.239-29.45,4.636-36.255,4.663
					c-1.273,1.781-3.871,3.004-6.878,3.004c-0.019,0-0.038,0-0.057,0c-4.276-0.02-7.734-2.497-7.719-5.534
					c0.014-3.024,3.466-5.462,7.721-5.462c0.017,0,0.034,0,0.051,0c4.207,0.02,7.613,2.42,7.71,5.387
					c12.211-1.216,25.619-10.51,25.619-10.51c4.246-2.845,7.222-3.074,8.073-3.074c0.099,0,0.169,0.003,0.209,0.005
					c0.104-0.385,0.213-0.795,0.334-1.248c0.265-0.784,0.619-1.652,0.979-2.592c0.191-0.467,0.356-0.962,0.591-1.447
					c0.248-0.479,0.501-0.977,0.762-1.486c0.262-0.502,0.531-1.019,0.806-1.547c0.302-0.51,0.643-1.01,0.97-1.525
					c0.332-0.508,0.67-1.024,1.012-1.547c0.381-0.49,0.767-0.984,1.156-1.484c0.398-0.487,0.76-1.004,1.191-1.465l1.285-1.385
					c3.441-3.669,7.476-6.426,10.574-8.206C135.013,95.609,135.359,95.509,135.632,95.509 M135.633,92.714L135.633,92.714
					c-0.789,0-1.599,0.235-2.408,0.698c-3.016,1.733-7.407,4.649-11.225,8.72l-1.295,1.396c-0.363,0.388-0.674,0.789-0.948,1.142
					c-0.119,0.152-0.236,0.305-0.359,0.455l-0.021,0.025l-0.02,0.026l-0.313,0.401l-0.847,1.087l-0.069,0.089l-0.062,0.095
					l-1.012,1.547c-0.128,0.201-0.236,0.368-0.344,0.534c-0.238,0.366-0.474,0.73-0.691,1.098l-0.04,0.066l-0.036,0.069
					l-0.706,1.354l-0.098,0.188l-0.2,0.391c-0.192,0.376-0.38,0.745-0.566,1.104l-0.018,0.034l-0.017,0.035
					c-0.207,0.427-0.36,0.828-0.496,1.182c-0.054,0.142-0.108,0.283-0.165,0.42l-0.012,0.03l-0.012,0.03l-0.292,0.751
					c-0.2,0.513-0.391,1.003-0.564,1.483c-1.792,0.33-4.458,1.189-7.686,3.352c-0.153,0.105-11.37,7.797-22.08,9.731
					c-1.582-2.986-5.303-5.061-9.68-5.081l-0.064,0c-5.876,0-10.495,3.622-10.516,8.245c-0.012,2.364,1.233,4.618,3.417,6.183
					c1.925,1.38,4.441,2.147,7.084,2.159l0.07,0c3.194,0,6.178-1.127,8.143-3.012c10.839-0.088,27.925-0.804,35.031-4.24
					c3.795,2,14.351,7.01,24.858,7.01c1.334,0,2.634-0.082,3.883-0.245c1.974,2.499,5.729,4.117,10.01,4.137l0.08,0
					c6.42,0,11.467-3.575,11.487-8.138c0.023-4.591-5.024-8.214-11.49-8.246l-0.08,0c-3.743,0-7.106,1.228-9.209,3.223
					c-3.738-2.042-11.831-6.837-17.394-12.822c0.011-0.257,0.022-0.524,0.029-0.803c0.136-3.003,1.123-6.712,2.639-9.874
					c1.941-4.229,4.895-7.807,6.484-9.568c1.249-1.383,1.62-3.049,0.995-4.455C138.262,93.483,137.044,92.714,135.633,92.714
					L135.633,92.714z"/>
			</g>
			<g>
				<path fill="#3AAA35" d="M117.311,124.925c-0.23,0.229-0.513,0.503-0.834,0.818c-0.309,0.32-0.69,0.658-1.133,1
					c-1.623,1.455-4.15,3.029-6.615,3.85c-1.048,0.344-2.063,0.535-3.004,0.623c-1.867-0.889-4.473-1.141-7.195-0.535
					c-4.789,1.07-8.127,4.394-7.45,7.428c0.675,3.033,5.11,4.627,9.899,3.557c0.928-0.205,1.798-0.499,2.599-0.855
					c0.239,0.125,0.506,0.148,0.81,0.033c2.904-1.068,6.273-3.217,8.541-5.811c2.279-2.606,3.623-5.383,4.238-7.445
					c0.191-0.507,0.331-0.974,0.416-1.397c0.099-0.415,0.184-0.775,0.255-1.073c0.135-0.588,0.213-0.924,0.213-0.924
					S117.781,124.46,117.311,124.925z"/>
				<g>
					<g>
						<path fill="#115529" d="M102.748,139.975c0,0-0.288,0.11-0.791,0.304c-0.522,0.135-1.257,0.378-2.179,0.507
							c-0.914,0.138-2.001,0.191-3.125,0.041c-1.115-0.147-2.29-0.493-3.18-1.126c-0.44-0.314-0.804-0.687-1.046-1.095
							c-0.238-0.41-0.337-0.86-0.339-1.303c-0.021-0.894,0.493-1.767,1.018-2.419c0.546-0.661,1.161-1.11,1.587-1.409
							c0.432-0.299,0.704-0.439,0.704-0.439c1.409-0.894,3.072-1.476,4.771-1.731c0.85-0.137,1.716-0.173,2.57-0.109
							c0.867,0.058,1.677,0.207,2.512,0.537l0.262,0.1l0.13,0.05l0.13-0.022l0.456-0.08l0.708-0.132
							c0.476-0.063,0.926-0.254,1.386-0.379c0.466-0.119,0.899-0.314,1.33-0.514c0.428-0.201,0.873-0.369,1.283-0.598
							c1.651-0.9,3.187-1.977,4.75-3.031c-0.068-0.068-0.137-0.136-0.146-0.128c0.657-0.657,1.281-1.306,1.854-1.987
							c-0.653,0.605-1.356,1.175-2.03,1.76c-0.009-0.011-0.018-0.022-0.018-0.023c-1.465,1.139-3.074,2.056-4.749,2.789
							c-0.419,0.18-0.859,0.307-1.285,0.462l-0.642,0.222c-0.217,0.062-0.44,0.097-0.66,0.147c-0.442,0.083-0.871,0.213-1.322,0.232
							l-0.667,0.064l-0.224,0.017c-0.063-0.023-0.086-0.046-0.171-0.085c-1.797-0.853-3.806-1.081-5.755-0.95
							c-1.955,0.133-3.9,0.643-5.692,1.588c0,0-0.318,0.181-0.851,0.545c-0.519,0.385-1.268,0.946-1.993,1.853
							c-0.703,0.89-1.463,2.196-1.418,3.855c0.033,0.81,0.284,1.646,0.73,2.361c0.439,0.725,1.066,1.284,1.72,1.723
							c2.701,1.72,5.771,1.65,7.878,1.342c1.066-0.171,1.932-0.446,2.536-0.626c0.59-0.228,0.927-0.358,0.927-0.358
							c0.102-0.044,0.204-0.088,0.307-0.128l-0.938-0.032c0.383,0.193,0.878,0.256,1.291,0.171c0.451-0.111,0.557-0.209,0.77-0.302
							l1.172-0.573c0.801-0.344,1.497-0.862,2.227-1.315c0.745-0.433,1.399-0.996,2.062-1.541c0.329-0.275,0.669-0.535,0.986-0.822
							l0.888-0.94c2.342-2.504,4.05-5.522,5.227-8.697c-0.085-0.018-0.171-0.036-0.175-0.024c0.306-1.199,0.5-2.333,0.68-3.494
							l0.093-0.596l-0.381,0.428l-0.692,0.778l0.774-0.696l0.187-0.169l-0.064,0.235c-0.308,1.127-0.643,2.26-1.05,3.342
							l0.017,0.013c-1.178,3.079-3.104,5.845-5.5,7.987l-0.898,0.799c-0.32,0.243-0.665,0.458-0.994,0.688
							c-0.664,0.454-1.312,0.923-2.044,1.262c-0.716,0.359-1.396,0.784-2.155,1.028l-1.106,0.425
							c-0.17,0.069-0.431,0.164-0.396,0.138c0.032,0.143-0.029,0.174,0.069-0.017l-0.875,0.07L102.748,139.975z"/>
					</g>
				</g>
			</g>
		</g>
		<g>
			<g>
				<g>
					<g>
						<path fill="#D8D346" d="M141.797,97.962c0,0,0.068-0.672-0.072-1.665c-0.127-0.991-0.523-2.285-1.207-3.427
							c-0.667-1.156-1.643-2.106-2.458-2.686c-0.815-0.59-1.45-0.835-1.45-0.835c0,0-0.175-0.085-0.503-0.179
							c-0.324-0.104-0.795-0.224-1.37-0.3c-1.145-0.15-2.744-0.002-4.079,0.733c-1.349,0.702-2.333,1.893-2.798,2.874
							c-0.254,0.483-0.392,0.917-0.479,1.218c-0.082,0.303-0.128,0.477-0.128,0.477s0.068-0.167,0.188-0.459
							c0.124-0.287,0.314-0.696,0.62-1.132c0.571-0.893,1.649-1.876,2.931-2.334c1.275-0.497,2.647-0.416,3.585-0.168
							c0.949,0.256,1.497,0.615,1.497,0.615c0,0,0.52,0.205,1.194,0.702c0.674,0.487,1.487,1.287,2.039,2.27
							c0.571,0.97,0.897,2.063,0.996,2.892c0.108,0.832,0.049,1.389,0.049,1.389s0.03,0.649-0.186,1.599
							c-0.21,0.946-0.779,2.171-1.759,3.083c-0.974,0.914-2.301,1.399-3.32,1.522c-0.258,0.024-0.495,0.046-0.706,0.065
							c-0.211-0.014-0.395-0.026-0.547-0.036c-0.306-0.02-0.48-0.032-0.48-0.032s0.173,0.034,0.476,0.094
							c0.153,0.03,0.339,0.066,0.552,0.108c0.218,0.007,0.463,0.016,0.731,0.025c1.065,0.005,2.559-0.318,3.781-1.214
							c1.23-0.882,2.073-2.232,2.458-3.319c0.196-0.544,0.31-1.017,0.366-1.352C141.792,98.157,141.797,97.962,141.797,97.962z"/>
					</g>
				</g>
			</g>
			<g>
				<g>
					<g>
						<path fill="#D8D346" d="M147.325,97.378c0,0,0.011-0.247,0.03-0.68c-0.016-0.43,0.001-1.054-0.117-1.786
							c-0.179-1.47-0.76-3.393-1.778-5.087c-0.994-1.712-2.452-3.111-3.667-3.956c-0.597-0.444-1.16-0.713-1.533-0.933
							c-0.396-0.178-0.623-0.28-0.623-0.28s-0.066-0.027-0.191-0.077c-0.123-0.054-0.307-0.124-0.55-0.189
							c-0.476-0.158-1.171-0.338-2.021-0.453c-0.851-0.094-1.856-0.141-2.912,0.025c-1.047,0.175-2.153,0.474-3.146,1.009
							c-2.021,1.017-3.541,2.761-4.278,4.225c-0.202,0.359-0.361,0.699-0.476,1.013c-0.128,0.308-0.236,0.576-0.294,0.808
							c-0.136,0.456-0.213,0.717-0.213,0.717s0.099-0.255,0.272-0.7c0.077-0.226,0.208-0.484,0.36-0.778
							c0.138-0.301,0.326-0.623,0.553-0.959c0.847-1.376,2.462-2.917,4.427-3.689c1.953-0.825,4.101-0.793,5.588-0.456
							c0.37,0.102,0.708,0.195,1.009,0.278c0.29,0.113,0.542,0.211,0.75,0.293c0.412,0.167,0.632,0.299,0.632,0.299
							c0,0,0.825,0.313,1.894,1.086c1.068,0.757,2.359,2.005,3.226,3.546c0.898,1.52,1.405,3.238,1.552,4.544
							c0.085,0.652,0.094,1.203,0.087,1.585c-0.017,0.383-0.027,0.602-0.027,0.602s0.005,0.254-0.048,0.694
							c-0.032,0.442-0.129,1.072-0.33,1.808c-0.187,0.743-0.537,1.568-1,2.41c-0.497,0.821-1.139,1.632-1.908,2.328
							c-1.563,1.376-3.625,2.084-5.194,2.247c-0.397,0.031-0.761,0.059-1.084,0.083c-0.323-0.026-0.605-0.048-0.837-0.067
							c-0.467-0.037-0.734-0.059-0.734-0.059s0.266,0.044,0.73,0.121c0.234,0.039,0.518,0.085,0.844,0.139
							c0.331,0.002,0.705,0.004,1.112,0.007c1.618-0.036,3.85-0.585,5.658-1.947c0.896-0.678,1.665-1.518,2.282-2.385
							c0.598-0.88,1.035-1.786,1.321-2.594c0.285-0.809,0.446-1.511,0.523-2.007C147.317,97.667,147.325,97.378,147.325,97.378z"/>
					</g>
				</g>
			</g>
		</g>
		<g>
			<g>
				<g>
					<g>
						<path fill="#115529" d="M143.405,98.078c0,0,0.08-0.792-0.084-1.958c-0.15-1.165-0.614-2.685-1.417-4.026
							c-0.783-1.357-1.93-2.475-2.89-3.156c-0.959-0.694-1.707-0.983-1.707-0.984s-0.208-0.097-0.596-0.202
							c-0.383-0.118-0.94-0.251-1.618-0.331c-1.351-0.158-3.229,0.046-4.776,0.93c-1.565,0.845-2.686,2.25-3.204,3.393
							c-0.144,0.282-0.254,0.547-0.331,0.791c-0.088,0.239-0.161,0.446-0.198,0.625c-0.088,0.351-0.138,0.551-0.138,0.551
							s0.082-0.19,0.227-0.524c0.149-0.327,0.378-0.793,0.739-1.285c0.677-1.01,1.933-2.102,3.395-2.583
							c1.455-0.526,2.988-0.393,4.026-0.089c0.523,0.165,0.936,0.346,1.218,0.487c0.281,0.143,0.431,0.242,0.431,0.242
							s0.577,0.227,1.326,0.779c0.749,0.542,1.654,1.431,2.269,2.526c0.636,1.081,0.999,2.298,1.108,3.221
							c0.12,0.925,0.054,1.543,0.054,1.543c0.001,0,0.05,0.72-0.167,1.785c-0.109,0.532-0.313,1.137-0.618,1.752
							c-0.322,0.603-0.746,1.213-1.279,1.738c-1.073,1.049-2.564,1.631-3.721,1.793c-0.294,0.033-0.563,0.063-0.802,0.09
							c-0.241-0.012-0.452-0.022-0.625-0.03c-0.351-0.017-0.551-0.026-0.551-0.026s0.197,0.043,0.542,0.119
							c0.175,0.038,0.387,0.085,0.631,0.138c0.25,0.014,0.532,0.03,0.839,0.047c1.225,0.033,2.962-0.305,4.407-1.322
							c0.72-0.5,1.34-1.145,1.845-1.814c0.498-0.676,0.851-1.388,1.103-2.02c0.242-0.635,0.386-1.189,0.458-1.582
							C143.394,98.307,143.405,98.078,143.405,98.078z"/>
					</g>
				</g>
			</g>
			<g>
				<g>
					<g>
						<path fill="#115529" d="M150.306,97.447c0,0,0.013-0.3,0.036-0.825c0.015-0.262-0.017-0.58-0.028-0.944
							c-0.01-0.366-0.039-0.776-0.112-1.219c-0.216-1.78-0.917-4.103-2.146-6.148c-1.2-2.069-2.962-3.765-4.437-4.79
							c-0.725-0.537-1.407-0.867-1.861-1.132c-0.481-0.217-0.756-0.341-0.756-0.341s-0.082-0.03-0.235-0.086
							c-0.152-0.061-0.378-0.138-0.677-0.209c-0.297-0.074-0.65-0.183-1.065-0.267c-0.421-0.062-0.888-0.163-1.405-0.207
							c-1.036-0.083-2.253-0.099-3.519,0.141c-1.258,0.25-2.572,0.654-3.736,1.332c-2.373,1.294-4.088,3.417-4.889,5.155
							c-0.221,0.428-0.393,0.831-0.513,1.201c-0.136,0.363-0.25,0.678-0.308,0.95c-0.137,0.534-0.216,0.839-0.216,0.839
							s0.127-0.29,0.351-0.795c0.1-0.256,0.266-0.547,0.456-0.878c0.174-0.338,0.407-0.698,0.685-1.071
							c1.042-1.533,2.961-3.182,5.186-3.927c2.216-0.806,4.554-0.636,6.142-0.187c0.393,0.131,0.753,0.252,1.072,0.359
							c0.305,0.139,0.571,0.26,0.791,0.36c0.221,0.088,0.378,0.201,0.491,0.261c0.111,0.064,0.17,0.098,0.17,0.098
							c0,0,0.882,0.334,2.028,1.165c1.146,0.814,2.535,2.154,3.468,3.817c0.968,1.642,1.513,3.493,1.67,4.896
							c0.064,0.349,0.063,0.674,0.079,0.96c0.012,0.287,0.036,0.537,0.014,0.742c-0.019,0.411-0.029,0.645-0.029,0.645
							c0,0,0.018,0.272-0.019,0.748c-0.012,0.478-0.087,1.16-0.269,1.965c-0.166,0.813-0.506,1.721-0.97,2.66
							c-0.501,0.915-1.164,1.831-1.977,2.632c-1.654,1.583-3.92,2.474-5.683,2.727c-0.448,0.052-0.858,0.1-1.222,0.143
							c-0.368-0.016-0.688-0.029-0.952-0.04c-0.534-0.022-0.839-0.035-0.839-0.035s0.301,0.064,0.827,0.176
							c0.267,0.057,0.591,0.125,0.962,0.204c0.381,0.02,0.81,0.042,1.278,0.065c1.867,0.042,4.503-0.477,6.715-2.003
							c1.095-0.759,2.054-1.723,2.835-2.733c0.759-1.025,1.328-2.095,1.711-3.056c0.382-0.962,0.61-1.806,0.727-2.403
							C150.281,97.796,150.306,97.447,150.306,97.447z"/>
					</g>
				</g>
			</g>
		</g>
	</g>
	<g>
		
			<ellipse transform="matrix(0.6822 0.7312 -0.7312 0.6822 69.2877 -104.9203)" fill="#0F9439" stroke="#055629" stroke-width="1.8635" stroke-miterlimit="10" cx="155.337" cy="27.244" rx="22.916" ry="26.433"/>
		
			<ellipse transform="matrix(0.6822 0.7312 -0.7312 0.6822 65.1062 -101.517)" fill="#E62D23" stroke="#A52616" stroke-width="1.8635" stroke-miterlimit="10" cx="149.331" cy="24.135" rx="18.807" ry="21.694"/>
		<ellipse fill="#FFFFFF" cx="151.255" cy="12.464" rx="9.472" ry="7.492"/>
		<ellipse fill="#FFFFFF" cx="144.031" cy="21.106" rx="3.636" ry="2.875"/>
	</g>
	<g>
		<g>
			<g>
				<path fill="#085729" d="M255.295,55.467l-0.902,1.138c0.038,0.022-0.652-0.497-1.824-1.102c-1.167-0.608-2.792-1.333-4.49-1.874
					c-0.837-0.302-1.699-0.534-2.508-0.752c-0.802-0.24-1.569-0.396-2.226-0.535c-0.656-0.139-1.203-0.255-1.586-0.336
					c-0.388-0.062-0.608-0.097-0.608-0.097s-0.465-0.086-1.277-0.237c-0.81-0.175-1.982-0.33-3.394-0.506
					c-1.406-0.223-3.068-0.291-4.845-0.442c-1.779-0.076-3.685-0.141-5.59-0.127c-3.813,0.04-7.627,0.316-10.479,0.615
					c-2.849,0.341-4.749,0.568-4.749,0.568s1.876-0.315,4.691-0.788c2.822-0.432,6.608-0.893,10.421-1.113
					c1.905-0.116,3.818-0.125,5.611-0.149c1.792,0.075,3.472,0.048,4.904,0.207c1.434,0.118,2.632,0.201,3.463,0.341
					c0.834,0.114,1.311,0.18,1.311,0.18s0.922,0.124,2.283,0.439c1.368,0.277,3.18,0.734,4.952,1.331
					c1.783,0.562,3.506,1.328,4.767,1.979c0.632,0.323,1.143,0.638,1.501,0.862c0.179,0.121,0.319,0.216,0.415,0.281
					C255.24,55.426,255.295,55.467,255.295,55.467z"/>
			</g>
		</g>
	</g>
	<g>
		<g>
			<g>
				<path fill="#085729" d="M228.464,84.183l1.976-0.918c0,0-0.09-0.176-0.247-0.484c-0.166-0.303-0.363-0.759-0.673-1.263
					c-0.593-1.024-1.477-2.333-2.494-3.529c-1.029-1.181-2.131-2.297-3.03-3.041c-0.434-0.393-0.818-0.689-1.085-0.899
					c-0.267-0.211-0.419-0.332-0.419-0.332c0,0-1.334-0.962-3.465-2.135c-2.129-1.178-5.085-2.481-8.128-3.465
					c-3.038-1.003-6.145-1.719-8.49-2.133c-2.344-0.42-3.919-0.557-3.919-0.557s1.548,0.27,3.822,0.882
					c2.273,0.605,5.264,1.569,8.133,2.794c2.877,1.208,5.609,2.698,7.528,3.978c1.926,1.273,3.086,2.264,3.086,2.264
					c0,0,0.144,0.114,0.396,0.314c0.249,0.204,0.622,0.475,1.027,0.845c0.847,0.704,1.882,1.739,2.842,2.833
					c0.939,1.111,1.761,2.309,2.3,3.249c0.288,0.46,0.462,0.878,0.615,1.154C228.382,84.022,228.464,84.183,228.464,84.183z"/>
			</g>
		</g>
	</g>
</g>
</svg>
